<?xml version="1.0" standalone="no"?>
<!DOCTYPE svg PUBLIC "-//W3C//DTD SVG 20010904//EN"
 "http://www.w3.org/TR/2001/REC-SVG-20010904/DTD/svg10.dtd">
<svg version="1.0" xmlns="http://www.w3.org/2000/svg"
 width="900.000000pt" height="900.000000pt" viewBox="0 0 900.000000 900.000000"
 preserveAspectRatio="xMidYMid meet">
<metadata>
Created by potrace 1.14, written by Peter Selinger 2001-2017
</metadata>
<g transform="translate(0.000000,900.000000) scale(0.100000,-0.100000)"
fill="#000000" stroke="none">
<path d="M4165 8589 c-191 -14 -470 -62 -675 -116 -1033 -269 -1931 -957
-2465 -1887 -295 -514 -472 -1094 -516 -1687 -14 -190 -6 -609 16 -769 105
-783 380 -1429 874 -2048 114 -143 417 -444 570 -567 394 -317 799 -540 1256
-695 161 -54 271 -84 287 -78 22 9 219 358 205 363 -7 2 -66 18 -132 35 -360
93 -712 249 -1030 455 -234 152 -394 282 -600 489 -523 525 -864 1178 -989
1900 -36 201 -46 304 -52 536 -19 649 153 1326 477 1877 402 683 992 1203
1709 1508 799 340 1708 376 2535 100 1002 -334 1814 -1102 2204 -2087 309
-779 331 -1659 61 -2460 -324 -959 -1061 -1755 -1995 -2151 -160 -68 -393
-146 -543 -183 -85 -20 -112 -30 -108 -41 12 -30 207 -353 214 -353 15 0 192
50 278 79 1017 338 1860 1066 2338 2018 516 1030 555 2268 104 3326 -217 510
-502 925 -904 1317 -671 654 -1550 1052 -2474 1120 -156 11 -485 11 -645 -1z"/>
<path d="M4340 7864 c-500 -35 -914 -145 -1317 -350 -607 -310 -1097 -793
-1418 -1397 -341 -644 -452 -1415 -309 -2142 76 -387 212 -733 422 -1075 409
-667 1070 -1179 1817 -1408 157 -48 357 -94 366 -84 9 11 379 663 379 668 0
10 -865 1763 -875 1773 -3 2 -33 -4 -67 -14 -86 -25 -268 -25 -363 -1 -218 56
-433 210 -558 399 -148 223 -258 614 -274 967 -16 365 83 633 267 725 111 56
283 43 461 -35 333 -147 731 -526 897 -855 75 -151 105 -279 105 -450 0 -229
-84 -434 -237 -585 -31 -30 -56 -58 -56 -64 0 -5 38 -72 84 -150 46 -77 144
-244 219 -371 74 -126 210 -358 303 -515 92 -157 193 -329 223 -382 31 -54 61
-98 66 -97 6 0 205 342 443 760 l433 759 -34 40 c-135 158 -172 398 -96 624
25 73 58 131 186 331 53 83 168 263 256 400 327 511 544 832 554 821 15 -15
-130 -296 -592 -1151 -76 -141 -155 -292 -155 -297 0 -7 99 -52 104 -47 2 2
156 258 343 569 409 682 513 844 513 802 0 -29 -96 -230 -479 -1005 -121 -246
-221 -450 -221 -452 0 -3 22 -16 50 -30 l49 -25 39 68 c22 37 164 292 317 567
273 491 399 709 437 756 l20 24 -6 -31 c-8 -52 -102 -263 -535 -1213 -61 -133
-111 -246 -111 -250 0 -5 21 -19 46 -32 l47 -24 16 24 c19 29 102 188 308 591
271 530 428 820 445 820 18 0 -134 -390 -405 -1035 -249 -594 -290 -671 -412
-783 -125 -114 -301 -176 -445 -156 l-69 10 -70 -146 c-38 -80 -109 -226 -157
-325 -47 -99 -106 -220 -129 -270 -24 -49 -142 -296 -263 -547 -121 -252 -223
-466 -226 -476 -4 -12 25 -70 82 -167 48 -83 137 -234 197 -338 l110 -187 40
6 c222 33 547 141 812 269 942 455 1602 1320 1792 2350 70 375 66 838 -10
1214 -279 1394 -1429 2451 -2834 2605 -145 16 -428 27 -525 20z"/>
<path d="M4402 1520 c-40 -82 -72 -154 -72 -160 0 -6 33 -11 83 -11 91 -2 220
2 225 6 5 4 -152 315 -159 315 -3 0 -38 -67 -77 -150z"/>
<path d="M4078 844 c-49 -100 -88 -186 -88 -191 0 -33 575 -56 836 -33 78 7
147 16 154 20 8 5 -16 64 -81 196 l-92 189 -321 0 -321 0 -87 -181z"/>
</g>
</svg>
